#!OML:ASF \\sashay\E\basketball\basketball\Project 1\Capture day 1\Session 1\Subject.ASF
:FULLY-SPECIFIED
:DEGREES
68
root -0.934544 15.4315 -2.23865 -167.706 37.3274 -179.292
lowerback 13.4367 -1.30455 -9.16528
upperback 7.84606 -1.97492 1.49677
thorax 1.25573 -1.04535 6.99814
lowerneck -3.06824 -8.0405 -14.5892
upperneck -11.8588 -8.53188 23.3881
head -1.00747 -4.08715 9.6598
rclavicle -1.74931e-014 -4.05521e-014
rhumerus -16.0104 -13.0216 -82.4561
rradius 41.3509
rwrist -4.89128
rhand -19.2993 23.5163
rfingers 7.12502
rthumb 7.01626 -6.34745
lclavicle -1.74931e-014 -4.05521e-014
lhumerus -13.0832 -4.4054 87.4202
lradius 75.847
lwrist 11.8839
lhand -22.5614 25.8389
lfingers 7.12502
lthumb 3.86668 55.7835
rfemur -53.1137 -3.19615 6.41324
rtibia 59.6445
rfoot -3.71898 -6.78444
rtoes -35.3577
lfemur 8.06709 5.55618 -24.5318
ltibia 32.7425
lfoot 12.9889 -9.66504
ltoes -15.4601
69
root -0.483404 15.5241 -2.69584 -167.574 37.2683 -179.631
lowerback 12.2191 -1.48407 -8.57295
upperback 7.51322 -2.1326 1.32862
thorax 1.5293 -1.13105 6.45908
lowerneck -3.07706 -8.04536 -14.699
upperneck -10.9521 -8.75003 22.9846
head -0.736375 -4.18958 9.49607
rclavicle 1.78906e-014 8.34896e-015
rhumerus -17.3603 -13.7247 -80.7796
rradius 41.0345
rwrist -4.34929
rhand -19.2227 23.4854
rfingers 7.12502
rthumb 7.09015 -6.37589
lclavicle 1.78906e-014 8.34896e-015
lhumerus -13.5477 -3.82382 86.0114
lradius 76.3571
lwrist 13.9125
lhand -20.603 26.5871
lfingers 7.12502
lthumb 5.75769 56.4889
rfemur -53.5027 -3.84888 6.8911
rtibia 54.2097
rfoot -2.10075 -5.78574
rtoes -41.0759
lfemur 11.1227 2.98095 -24.9522
ltibia 29.1416
lfoot 14.668 -8.13465
ltoes -21.1143
70
root -0.00222176 15.611 -3.14337 -167.851 37.0923 -179.905
lowerback 11.2865 -1.60863 -8.57725
upperback 7.38194 -2.26264 1.47271
thorax 1.92193 -1.23068 6.59553
lowerneck -3.10092 -8.00516 -14.826
upperneck -10.319 -8.8675 22.2624
head -0.581238 -4.23907 9.24651
rclavicle 5.76476e-015 -4.37326e-015
rhumerus -18.3445 -13.9586 -78.8457
rradius 40.6302
rwrist -3.74492
rhand -19.1543 23.4566
rfingers 7.12502
rthumb 7.15619 -6.40243
lclavicle 5.76476e-015 -4.37326e-015
lhumerus -13.9363 -2.8751 84.9504
lradius 76.8228
lwrist 15.5298
lhand -18.5385 27.2734
lfingers 7.12502
lthumb 7.7506 57.1114
rfemur -53.1333 -4.24915 7.52002
rtibia 48.9469
rfoot -0.558814 -5.35174
rtoes -40.1674
lfemur 14.5869 0.734702 -25.2035
ltibia 26.0154
lfoot 15.2505 -6.8699
ltoes -27.5373
71
root 0.472556 15.68 -3.58663 -168.34 36.8301 -180.288
lowerback 10.5143 -1.71276 -8.57706
upperback 7.30563 -2.36459 1.54714
thorax 2.28133 -1.30905 6.65511
lowerneck -3.11469 -7.95095 -15.1303
upperneck -9.731 -8.92347 21.8966
head -0.416302 -4.25698 9.15513
rclavicle 8.40859e-014 -3.65764e-014
rhumerus -19.0576 -14.3669 -76.8955
rradius 39.5713
rwrist -3.25305
rhand -19.1163 23.4269
rfingers 7.12502
rthumb 7.19292 -6.43085
lclavicle 8.40859e-014 -3.65764e-014
lhumerus -14.3596 -2.10658 83.8616
lradius 77.3425
lwrist 16.8338
lhand -16.3172 27.561
lfingers 7.12502
lthumb 9.89416 57.3085
rfemur -52.5939 -4.99455 8.28739
rtibia 43.9414
rfoot 0.933514 -5.04458
rtoes -39.3301
lfemur 17.7005 -1.54104 -25.8064
ltibia 24.0842
lfoot 15.2703 -4.88535
ltoes -31.1501
72
root 0.952708 15.7341 -4.02135 -169.132 36.5889 -180.899
lowerback 9.90467 -1.73317 -8.77032
upperback 7.25104 -2.37329 1.45816
thorax 2.56508 -1.33722 6.64848
lowerneck -3.07556 -7.9961 -15.2336
upperneck -9.1768 -9.10613 21.6353
head -0.248276 -4.34778 9.05826
rclavicle -1.27023e-013 2.94201e-014
rhumerus -19.8012 -14.8054 -75.1022
rradius 38.6588
rwrist -3.05591
rhand -19.0989 23.3652
rfingers 7.12502
rthumb 7.2097 -6.492
lclavicle -1.27023e-013 2.94201e-014
lhumerus -14.9662 -1.9913 82.5658
lradius 78.1199
lwrist 18.3157
lhand -14.4517 27.7369
lfingers 7.12502
lthumb 11.6935 57.3905
rfemur -51.9426 -5.67641 8.97747
rtibia 39.4495
rfoot 2.47382 -5.35716
rtoes -40.5806
lfemur 20.6241 -3.64573 -26.7369
ltibia 23.0005
lfoot 15.7053 -2.45354
ltoes -31.301
73
root 1.40197 15.7667 -4.45396 -169.604 36.4498 -181.675
lowerback 9.04673 -1.8138 -8.80422
upperback 7.03745 -2.45523 1.27163
thorax 2.81153 -1.39546 6.44438
lowerneck -3.06509 -8.05788 -15.3671
upperneck -8.67194 -9.29477 21.3951
head -0.0850232 -4.43947 8.97396
rclavicle 2.38542e-015 -5.96354e-015
rhumerus -20.456 -14.0652 -73.6647
rradius 38.5675
rwrist -2.76666
rhand -19.1224 23.3301
rfingers 7.12502
rthumb 7.18698 -6.52788
lclavicle 2.38542e-015 -5.96354e-015
lhumerus -15.796 -2.07293 81.2137
lradius 79.2905
lwrist 19.9599
lhand -12.8259 28.1406
lfingers 7.12502
lthumb 13.261 57.6987
rfemur -52.0169 -6.67127 9.74865
rtibia 35.4447
rfoot 4.16387 -5.11225
rtoes -45.1151
lfemur 22.3592 -5.39834 -27.9613
ltibia 23.1292
lfoot 16.0381 -0.900566
ltoes -30.141
74
root 1.87399 15.8051 -4.86904 -170.51 36.3268 -182.586
lowerback 8.5106 -1.81984 -9.41638
upperback 6.92632 -2.47298 1.11574
thorax 3.02485 -1.43893 6.60737
lowerneck -2.836 -7.999 -15.6027
upperneck -8.36591 -9.30025 21.3356
head -0.0299791 -4.45199 8.99569
rclavicle 3.97569e-016 8.74653e-015
rhumerus -20.9852 -13.5078 -72.2791
rradius 38.6282
rwrist -1.83419
rhand -19.1866 23.331
rfingers 7.12502
rthumb 7.12501 -6.52908
lclavicle 3.97569e-016 8.74653e-015
lhumerus -16.7909 -2.05024 79.9069
lradius 80.7098
lwrist 21.4609
lhand -11.1658 28.6994
lfingers 7.12502
lthumb 14.8607 58.1465
rfemur -51.5133 -7.61667 10.718
rtibia 32.4122
rfoot 4.92433 -5.08111
rtoes -46.3765
lfemur 23.9064 -6.31336 -28.855
ltibia 24.2096
lfoot 16.3701 -0.435206
ltoes -28.6419
75
root 2.33854 15.8339 -5.2761 -171.496 36.2185 -183.598
lowerback 8.16876 -1.78422 -10.0461
upperback 6.77907 -2.44635 0.869303
thorax 3.08103 -1.44778 6.68937
lowerneck -2.38515 -7.8562 -15.5402
upperneck -8.36517 -9.17307 21.1562
head -0.146328 -4.41664 8.95367
rclavicle -8.21975e-014 1.25234e-014
rhumerus -21.3505 -13.6675 -70.803
rradius 38.5791
rwrist -0.412122
rhand -19.2844 23.3352
rfingers 7.12502
rthumb 7.03067 -6.52806
lclavicle -8.21975e-014 1.25234e-014
lhumerus -18.0508 -2.12534 78.6054
lradius 82.4752
lwrist 23.3405
lhand -8.94511 29.0997
lfingers 7.12502
lthumb 16.9993 58.3759
rfemur -51.3441 -8.78127 11.7588
rtibia 30.1023
rfoot 5.46672 -5.24902
rtoes -43.9811
lfemur 24.8926 -6.74693 -29.6514
ltibia 26.2829
lfoot 16.2433 -0.102127
ltoes -27.4197
76
root 2.82161 15.8486 -5.66344 -172.715 36.473 -184.472
lowerback 8.12315 -1.56467 -11.0936
upperback 6.72445 -2.2074 0.727521
thorax 3.06628 -1.36285 7.12089
lowerneck -2.21306 -7.79542 -15.4753
upperneck -8.27552 -9.13563 20.941
head -0.176029 -4.40785 8.87875
rclavicle 1.02672e-013 -2.00773e-014
rhumerus -21.3472 -13.5653 -69.3891
rradius 38.5854
rwrist 0.896901
rhand -19.3851 23.3105
rfingers 7.12502
rthumb 6.93341 -6.55591
lclavicle 1.02672e-013 -2.00773e-014
lhumerus -19.6379 -2.29498 77.305
lradius 84.7308
lwrist 25.9028
lhand -6.10503 29.2271
lfingers 7.12502
lthumb 19.7314 58.2456
rfemur -50.9754 -10.025 13.6535
rtibia 28.8917
rfoot 6.64037 -3.94472
rtoes -47.5653
lfemur 25.82 -6.38144 -30.1045
ltibia 28.9765
lfoot 15.8229 0.259227
ltoes -27.2878
77
root 3.29387 15.8505 -6.05037 -173.937 36.8544 -185.251
lowerback 8.15409 -1.31473 -11.9462
upperback 6.73081 -1.9144 0.564119
thorax 3.04421 -1.2406 7.41765
lowerneck -2.15994 -7.71609 -15.6712
upperneck -8.1867 -9.03749 21.0717
head -0.159417 -4.3573 8.96229
rclavicle 2.85256e-014 -4.57205e-015
rhumerus -21.0779 -13.5348 -68.1154
rradius 38.4617
rwrist 2.05894
rhand -19.4631 23.2803
rfingers 7.12502
rthumb 6.85816 -6.58862
lclavicle 2.85256e-014 -4.57205e-015
lhumerus -21.3449 -2.54636 76.0494
lradius 87.3046
lwrist 28.8576
lhand -3.99144 29.5692
lfingers 7.12502
lthumb 21.7622 58.3658
rfemur -50.8544 -10.9076 15.3005
rtibia 28.3875
rfoot 8.27655 -4.34011
rtoes -45.9306
lfemur 26.3123 -5.55836 -30.3844
ltibia 32.3717
lfoot 15.2116 0.888357
ltoes -27.2337
78
root 3.75224 15.8288 -6.43518 -175.083 37.2996 -185.945
lowerback 8.12418 -1.09441 -12.5354
upperback 6.76561 -1.63104 0.295466
thorax 3.06321 -1.11164 7.44878
lowerneck -2.32339 -7.42619 -16.1828
upperneck -7.60037 -8.66037 21.7809
head 0.0348794 -4.14864 9.29238
rclavicle -6.49032e-014 -5.36719e-015
rhumerus -20.7541 -11.2525 -68.0266
rradius 38.0123
rwrist 2.91083
rhand -19.3787 22.8415
rfingers 7.12502
rthumb 6.93958 -7.02477
lclavicle -6.49032e-014 -5.36719e-015
lhumerus -23.2178 -2.80479 74.6712
lradius 90.1446
lwrist 32.0714
lhand -2.52426 30.0584
lfingers 7.12502
lthumb 23.1705 58.6849
rfemur -50.5914 -11.6467 16.7467
rtibia 28.634
rfoot 8.61357 -3.92126
rtoes -44.2754
lfemur 26.456 -4.36055 -30.4205
ltibia 36.3902
lfoot 14.3117 2.06463
ltoes -25.7943
